<?xml version="1.0" standalone="no"?>
<!DOCTYPE svg PUBLIC "-//W3C//DTD SVG 20010904//EN"
 "http://www.w3.org/TR/2001/REC-SVG-20010904/DTD/svg10.dtd">
<svg version="1.0" xmlns="http://www.w3.org/2000/svg"
 width="1920.000000pt" height="1920.000000pt" viewBox="0 0 1920.000000 1920.000000"
 preserveAspectRatio="xMidYMid meet">
<metadata>
Created by potrace 1.14, written by Peter Selinger 2001-2017
</metadata>
<g transform="translate(0.000000,1920.000000) scale(0.100000,-0.100000)"
fill="#000000" stroke="none">
<path d="M6110 11610 l0 -250 250 0 250 0 2 -252 3 -253 235 -2 c129 -1 241
-2 248 -2 9 -1 12 -58 12 -251 l0 -250 -250 0 -250 0 0 -250 0 -250 -250 0
-250 0 0 -250 0 -250 -250 0 -250 0 0 -250 0 -250 250 0 250 0 0 -250 0 -250
-250 0 -250 0 0 -252 0 -253 250 0 250 0 0 253 0 252 250 0 250 0 0 -250 0
-250 248 -2 247 -3 5 -250 5 -250 248 -3 247 -2 0 250 0 250 -250 0 -250 0 0
255 0 255 -250 0 -250 0 0 250 0 250 -250 0 -250 0 0 250 0 250 250 0 250 0 0
250 0 250 250 0 250 0 0 250 0 250 250 0 250 0 0 250 0 250 -247 2 -248 3 -3
253 -2 252 250 0 250 0 0 250 0 250 -247 -2 -248 -3 -5 -248 c-3 -136 -8 -247
-12 -247 -5 0 -116 0 -248 0 l-240 0 0 250 0 250 -250 0 -250 0 0 -250z"/>
<path d="M8120 11611 c0 -194 -3 -251 -12 -252 -7 0 -120 0 -250 0 l-237 1 -3
-250 c-3 -243 -2 -249 17 -252 11 -2 125 -2 253 0 l232 3 0 249 0 250 250 0
250 0 0 -250 0 -250 250 0 250 0 0 -255 0 -255 -250 0 -250 0 0 250 0 250
-250 0 -250 0 0 -250 0 -250 -250 0 -250 0 -1 -225 c-1 -124 -2 -235 -2 -247
l-1 -23 502 -3 502 -2 0 -250 0 -250 -250 0 -250 0 0 -250 0 -250 -250 0 -250
0 0 -250 0 -250 250 0 250 0 0 -505 0 -505 623 2 622 3 3 683 2 682 274 0 273
0 452 -679 c249 -374 460 -681 469 -683 10 -1 332 -1 718 2 l701 5 -175 255
c-96 140 -226 332 -290 425 -115 170 -144 212 -436 639 -86 126 -156 232 -156
237 0 4 53 35 118 69 409 212 674 547 763 965 63 296 42 664 -52 931 -173 490
-613 825 -1229 934 -235 42 -251 43 -1487 47 l-1193 4 0 -250z m2001 -1508 l0
-248 -250 -3 -251 -2 0 -250 0 -250 -250 0 -250 0 0 250 0 250 250 0 250 0 0
249 c0 158 4 251 10 253 6 2 118 2 250 1 l240 -1 1 -249z m-1501 -1501 c0
-137 -2 -251 -4 -253 -2 -2 -115 -3 -250 -1 l-246 3 0 249 0 250 250 0 250 0
0 -248z"/>
<path d="M5610 10600 l0 -250 250 0 250 0 0 250 0 250 -250 0 -250 0 0 -250z"/>
<path d="M7117 9343 c-4 -3 -7 -116 -7 -250 l0 -243 250 0 250 0 0 250 0 250
-243 0 c-134 0 -247 -3 -250 -7z"/>
</g>
</svg>
